<?xml version="1.0" encoding="UTF-8"?> <svg xmlns="http://www.w3.org/2000/svg" width="49" height="49" viewBox="0 0 49 49"><path d="M49,24.5A24.5,24.5,0,1,0,20.672,48.7V31.582H14.451V24.5h6.221V19.1c0-6.14,3.658-9.532,9.254-9.532a37.675,37.675,0,0,1,5.484.479v6.029H32.321c-3.043,0-3.993,1.889-3.993,3.826v4.6h6.795l-1.086,7.082H28.328V48.7A24.506,24.506,0,0,0,49,24.5Z" fill="#fff"></path><path d="M321.586,222.012l1.086-7.082h-6.795v-4.6c0-1.938.949-3.826,3.993-3.826h3.089v-6.029a37.675,37.675,0,0,0-5.484-.479c-5.6,0-9.254,3.392-9.254,9.532v5.4H302v7.082h6.221v17.12a24.759,24.759,0,0,0,7.656,0v-17.12Z" transform="translate(-287.549 -190.43)" fill="#183041"></path></svg> 